inDegrees=yes
name=ik_coleta2_trike_10hz_mov
DataType=double
version=3
OpenSimVersion=4.4-2022-07-23-0e9fedc
endheader
time	hip_flexion_r	knee_angle_r	hip_flexion_l	knee_angle_l	gearToGround_coord_0
32.53635406494141	94.7737881192102	-67.32361983272648	101.2529139862461	-106.872465585141	-759.7604753159268
32.54235696792603	94.42433803033759	-66.96542111786525	101.6083640913581	-107.2368993563433	-760.6703011275401
32.54734516143799	94.05615285855325	-66.59102649647109	101.9721566712792	-107.5278979095196	-761.6361202007747
32.55232715606689	93.67561817605939	-66.20748182180189	102.3659175469979	-107.8597482724666	-762.6380042272303
32.55638003349304	93.30422661338596	-65.83649588385136	102.744989433026	-108.1977050071793	-763.6210707156329
32.56135296821594	92.96289515463403	-65.49862023405932	103.0873997609162	-108.5324914556167	-764.5292718935586
32.56634092330933	92.66825329200637	-65.20930520467508	103.4031751987378	-108.7661720957389	-765.3197563337262
32.57039999961853	92.43443780146472	-64.98143327423152	103.736520260736	-108.9841579636824	-765.9491803505966
32.5754017829895	92.25841571990343	-64.81080624131702	103.8381297251268	-109.1233067466405	-766.4251445388121
32.5833420753479	92.10484592830896	-64.66263050591887	103.9912154222711	-109.266373810678	-766.8414146142438
32.58939695358276	91.91555262452509	-64.48088295780354	104.1902249409042	-109.432973475763	-767.3564475518856
32.5943431854248	91.64316086915179	-64.22110773899033	104.5137221248726	-109.6502934491626	-768.1011337163707
32.5983419418335	91.27573046916062	-63.87412483370701	104.9357775975423	-109.9689402571521	-769.1135799649671
32.60336089134216	90.8144616829828	-63.44424328335682	105.3700505228497	-110.3872992685414	-770.3947343020379
32.61233806610107	90.31649994284679	-62.98766470674032	105.9529922493748	-110.7597159393887	-771.7947277062597
32.62539887428284	89.84259732207374	-62.56076577284998	106.5087147974852	-111.3233773251908	-773.1443116530889
32.63133502006531	89.442525350064	-62.20648598023342	106.8968352920246	-111.4763679887118	-774.2979041041314
32.64534401893616	89.12638329740204	-61.93067413309143	107.2548032218967	-111.7717257037093	-775.2199943298676
32.6533670425415	88.86376294965783	-61.70446038549293	107.5739443244268	-111.9079953408278	-775.9922486121343
32.65937614440918	88.62353634509209	-61.49992614251232	107.8288738555223	-112.1167332183705	-776.7052358633672
32.66333293914795	88.39289801925828	-61.30578181755133	108.1948690891095	-112.4793132521356	-777.3947817157898
32.66934394836426	88.17610549371456	-61.12534259480227	108.3503019274717	-112.4429779784956	-778.0488184369409
32.67634701728821	87.97119862116227	-60.95668096351648	108.5960477312283	-112.6506789721038	-778.6720601002833
32.68033599853516	87.75741150670954	-60.78272154673009	108.8442313643372	-112.7436442166002	-779.3262765243436
32.68636584281921	87.51655004758229	-60.58926454771628	109.1727468788865	-112.8938381729764	-780.0639782545381
32.697350025177	87.2195277261543	-60.35462396487042	109.6551576589913	-113.1731483676734	-780.9990491828343
32.70338606834412	86.9050372296489	-60.11086833348809	109.875312768678	-113.3249253921235	-781.9959925688116
32.70739197731018	86.59644513461595	-59.94663139000587	110.1999089727688	-113.5064731897526	-782.8576295114284
32.7113950252533	86.31469395566856	-59.98481451378716	110.9296084574268	-113.9902234406373	-784.7585097283471
32.71634602546692	85.93952314268392	-59.7219040201995	111.3850873885985	-114.1238481971491	-786.0321709250859
32.72036910057068	85.50528045354078	-59.42879269725017	111.9395076635723	-114.3930009588871	-787.5426221447379
32.72540307044983	85.03767242612767	-59.12928990702899	112.5674074505229	-114.7394452730736	-789.2245727981931
32.73033690452576	84.55594170989087	-58.83983983491646	113.2226390232174	-115.0230704532157	-791.0086506944344
32.73433995246887	84.07586432707544	-58.57299256960874	113.8505222300886	-115.2188606053637	-792.8504309517199
32.73838305473328	83.61481191442964	-58.33972755529865	114.4767608926304	-115.3985921363729	-794.6916062726073
32.74336099624634	83.1677715758682	-58.13814363159122	115.1054055662807	-115.5340518220888	-796.5532135924575
32.74932813644409	82.7175130451821	-57.96335738762419	115.793548239971	-115.8251131318637	-798.5175841936891
32.75435590744019	82.260441796381	-57.819895168682	116.4117945583253	-115.8303047703074	-800.619509633501
32.75835800170898	81.80920294108451	-57.71834369261054	117.084304266484	-115.9295227886083	-802.8244793205856
32.76234412193298	81.37382322388589	-57.66636471245838	117.8330230697132	-116.1296695035696	-805.1024578051855
32.76734495162964	80.95757296471048	-57.66934579427696	118.4196981736755	-116.0350156435136	-807.4539363767387
32.77139902114868	80.57478070028239	-57.73005310704011	119.0184307785616	-115.9289912551389	-809.8104292418553
32.77537512779236	80.23851937020683	-57.84302947503292	119.5775984742249	-115.8427304412909	-812.0819764488292
32.77935004234314	79.94862158433068	-57.99971569992936	120.0744701995608	-115.7151780515148	-814.2422047544301
32.78334617614746	79.69569914055282	-58.19670598509776	120.5268805021569	-115.5628393244829	-816.33377186991
32.79139399528503	79.47212421172064	-58.43510110594023	120.943425430568	-115.3736603491828	-818.4058616609428
32.79533314704895	79.2710182921078	-58.72280294159951	121.3423985562794	-115.1513686026278	-820.5242077566345
32.80132007598877	79.08600297121983	-59.07992551208318	121.7323849016265	-114.8673042864314	-822.7983597398149
32.8053731918335	78.92475079611965	-59.51059575456897	122.1074445364543	-114.5241461299213	-825.2017071068905
32.81133985519409	78.80357438305194	-59.97014158018891	122.4284478946329	-114.1528222148055	-827.4904521715158
32.81635499000549	78.72695456151874	-60.38516486490344	122.6584671159373	-113.8052729014186	-829.3814917886942
32.82138299942017	78.68311720054656	-60.71857952549711	122.8005097206077	-113.5151196761397	-830.8063320509425
32.82538318634033	78.6567801275317	-60.99411379605069	122.8924136831495	-113.2702154546785	-831.9329958519689
32.83434700965881	78.63713957429572	-61.29225032699122	122.9770877295361	-113.0047427468801	-833.1053800503001
